<?xml version="1.0" encoding="utf-8"?>
<!-- Generator: Adobe Illustrator 15.0.0, SVG Export Plug-In . SVG Version: 6.00 Build 0)  -->
<!DOCTYPE svg PUBLIC "-//W3C//DTD SVG 1.1//EN" "http://www.w3.org/Graphics/SVG/1.1/DTD/svg11.dtd">
<svg version="1.1" id="Calque_1" xmlns="http://www.w3.org/2000/svg" xmlns:xlink="http://www.w3.org/1999/xlink" x="0px" y="0px"
	 width="283.464px" height="107.639px" viewBox="0 0 283.464 107.639" enable-background="new 0 0 283.464 107.639"
	 xml:space="preserve">
<path fill="#FFFFFF" d="M34.499,0.82h-10.01L0,59.57h13.843l4.789-11.431h21.724l4.789,11.431h13.844L34.499,0.82z M22.472,36.985
	l7.021-18.332l0.001,0.004l0.001-0.004l7.021,18.332H22.472z"/>
<path fill="#FFFFFF" d="M213.146,19.152c-4.889-4.29-12.625-4.092-16.305-2.824c-0.641,0.221-3.805,1.232-6.378,3.753l-0.533-3.521
	h-11.972V59.57h13.137V29.908c1.076-0.966,2.304-1.794,3.561-2.511c1.365-0.778,4.633-1.76,7.438-0.184
	c2.303,1.293,3.355,4.319,3.355,7.962V59.57h13.137V34.315C218.585,25.052,215.175,20.933,213.146,19.152z"/>
<path fill="#FFFFFF" d="M72.86,16.561H60.784V59.57h13.14V29.811c1.028-0.961,2.214-1.801,3.479-2.411
	c1.465-0.706,5.101-1.989,7.728,0.212c2.037,1.707,2.118,5.737,2.118,6.881V59.57h13.05V33.812c0-1.575-0.178-3.121-0.426-4.675
	c1.195-0.81,2.538-1.388,3.856-1.973c2.99-1.329,6.404-0.668,7.518,0.108c2.406,1.68,2.648,5.486,2.648,7.22V59.57h13.049V33.987
	c0-4.701-0.662-10.618-4.883-14.439c-4.254-3.851-10.805-3.954-12.174-3.992c-8.081,0.125-14.192,4.449-14.192,4.449
	c-2.908-2.97-10.054-5.741-15.925-3.675c-0.639,0.225-3.805,1.232-6.378,3.753L72.86,16.561z"/>
<path fill="#FFFFFF" d="M172.185,16.561H159.05v29.79c-1.07,0.8-2.23,1.547-3.428,2.145c-1.318,0.658-4.588,1.497-7.35,0.434
	c-2.969-1.143-3.406-5.951-3.406-8.053V16.561h-13.138v25.424c0,4.774,0.847,9.957,4.135,13.638
	c3.323,3.719,8.564,5.105,13.419,4.77c2.24-0.155,4.438-0.775,6.438-1.791c1.388-0.704,2.786-1.596,3.872-2.719l0.559,3.688h12.033
	V16.561"/>
<path fill="#FFFFFF" d="M249.566,0.823v15.583c-2.121-0.558-4.305-0.864-6.5-0.864c-8.428,0-13.049,3.999-14.955,5.911
	c-4.146,4.158-6.338,10.078-6.367,15.888c-0.072,14.128,7.652,19.729,11.486,21.491c2.539,1.167,5.479,1.818,8.273,1.643
	c2.467-0.154,6.154-1.18,8.754-3.513l0.395,2.608h11.972V0.823H249.566z M249.566,46.603c-0.775,1.054-2.012,1.767-3.201,2.252
	c-4.545,1.855-10.344-0.228-11.564-7.984c-0.439-2.796-0.414-5.445,0.631-8.149c0.955-2.469,3.506-6.287,9.178-6.253
	c1.541,0.009,3.197,0.288,4.957,0.895V46.603z"/>
<path fill="#FFFFFF" d="M283.464,6.835c0,3.683-2.578,7.032-7.626,7.032c-5.05,0-7.627-3.349-7.627-7.032s2.842-6.992,7.627-6.992
	C280.622-0.156,283.464,3.152,283.464,6.835z"/>
<rect x="269.311" y="16.561" fill="#FFFFFF" width="13.053" height="43.009"/>
<rect x="0.505" y="70.636" fill="#FFFFFF" width="281.858" height="11.073"/>
<path fill="#FFFFFF" d="M59.571,107.309l5.641-14.548h3.637l5.684,14.548h-4.182l-0.937-2.505h-4.878l-0.958,2.505H59.571z
	 M65.386,101.842h3.136l-1.568-4.421L65.386,101.842z"/>
<path fill="#FFFFFF" d="M102.191,107.309V92.783h10.345v3.332h-6.447v2.396h5.249v3.071h-5.249v2.374h6.904v3.354H102.191z"/>
<path fill="#FFFFFF" d="M118.199,107.309V96.115h-4.073v-3.332h12.021v3.332h-4.029v11.194H118.199z"/>
<path fill="#FFFFFF" d="M132.441,107.309V92.783h4.007l3.615,8.646l3.42-8.646h4.028v14.526h-3.768v-7.1l-2.896,7.188h-1.59
	l-3.049-7.23v7.143H132.441z"/>
<path fill="#FFFFFF" d="M149.298,107.309l5.641-14.548h3.637l5.685,14.548h-4.182l-0.937-2.505h-4.878l-0.959,2.505H149.298z
	 M155.113,101.842h3.137l-1.568-4.421L155.113,101.842z"/>
<path fill="#FFFFFF" d="M166.046,107.309V92.783h3.941l4.727,7.688v-7.688h3.832v14.526h-3.55l-5.14-8.21v8.21H166.046z"/>
<path fill="#FFFFFF" d="M180.332,107.309l5.642-14.548h3.637l5.685,14.548h-4.182l-0.937-2.505h-4.878l-0.959,2.505H180.332z
	 M186.147,101.842h3.136l-1.567-4.421L186.147,101.842z"/>
<path fill="#FFFFFF" d="M211.105,107.309V92.783h10.345v3.332h-6.446v2.396h5.248v3.071h-5.248v2.374h6.904v3.354H211.105z"/>
<path fill="#FFFFFF" d="M224.346,107.309V92.783h4.007l3.615,8.646l3.42-8.646h4.029v14.526h-3.768v-7.1l-2.896,7.188h-1.59
	l-3.05-7.23v7.143H224.346z"/>
<path fill="#FFFFFF" d="M242.662,107.309V92.783h10.346v3.332h-6.447v2.396h5.249v3.071h-5.249v2.374h6.904v3.354H242.662z"/>
<path fill="#FFFFFF" d="M255.904,107.309V92.783h3.941l4.727,7.688v-7.688h3.832v14.526h-3.549l-5.141-8.21v8.21H255.904z"/>
<path fill="#FFFFFF" d="M274.415,107.309V96.115h-4.073v-3.332h12.022v3.332h-4.029v11.194H274.415z"/>
<path fill="#FFFFFF" d="M78.235,102.976c0.319,0.406,0.751,0.765,1.296,1.077c0.591,0.339,1.273,0.481,1.951,0.468
	c0.548-0.012,1.345-0.126,1.642-0.66c0.316-0.571,0.038-1.228-0.476-1.551c-0.524-0.33-1.14-0.521-1.725-0.713
	c-1.329-0.437-2.77-0.808-3.861-1.73c-1.096-0.926-1.464-2.368-1.222-3.755c0.358-2.061,2.242-3.217,4.181-3.515
	c2.031-0.312,4.447,0.021,5.989,1.492c0.319,0.306,0.581,0.61,0.784,0.915l-2.613,2.025c-0.117-0.174-0.261-0.355-0.436-0.545
	c-0.456-0.492-1.097-0.841-1.752-0.978c-0.598-0.124-1.358-0.128-1.906,0.177c-0.518,0.288-0.744,0.973-0.346,1.465
	c0.383,0.474,1.067,0.685,1.621,0.876c1.335,0.461,2.784,0.771,3.955,1.602c1.14,0.808,1.697,2.027,1.716,3.409
	c0.063,4.549-5.911,5.469-9.179,3.849c-0.98-0.486-1.746-1.1-2.298-1.84L78.235,102.976"/>
<path fill="#FFFFFF" d="M90.954,102.973c0.319,0.407,0.751,0.766,1.296,1.078c0.591,0.339,1.273,0.481,1.951,0.467
	c0.548-0.012,1.345-0.125,1.642-0.659c0.316-0.571,0.038-1.228-0.476-1.551c-0.524-0.33-1.14-0.521-1.725-0.713
	c-1.329-0.437-2.77-0.808-3.861-1.73c-1.096-0.926-1.464-2.368-1.222-3.755c0.358-2.061,2.242-3.218,4.181-3.515
	c2.031-0.312,4.447,0.021,5.989,1.492c0.319,0.306,0.581,0.61,0.784,0.915L96.9,97.028c-0.117-0.175-0.261-0.355-0.436-0.545
	c-0.456-0.493-1.097-0.841-1.752-0.978c-0.598-0.125-1.358-0.129-1.906,0.177c-0.517,0.288-0.744,0.973-0.346,1.464
	c0.383,0.475,1.067,0.686,1.621,0.877c1.335,0.46,2.784,0.771,3.955,1.602c1.14,0.808,1.697,2.027,1.716,3.409
	c0.063,4.549-5.911,5.469-9.179,3.849c-0.98-0.486-1.746-1.1-2.298-1.84L90.954,102.973"/>
<path fill="#FFFFFF" d="M202.577,102.242v-2.881h5.72v7.377c-1.942,0.733-3.938,0.831-4.705,0.878
	c-2.57,0.155-4.854-0.437-6.402-2.478c-0.961-1.267-1.371-2.859-1.451-4.427c-0.084-1.632,0.13-3.305,0.865-4.779
	c0.949-1.907,2.729-3.121,4.836-3.385c2.099-0.264,4.483,0.166,5.874,1.891c0.334,0.414,0.618,0.878,0.851,1.386l-3.252,1.659
	c-0.262-0.553-0.571-0.983-0.927-1.288c-0.883-0.752-2.298-0.539-3.095,0.221c-0.812,0.775-1.078,1.899-1.15,2.983
	c-0.244,3.712,1.585,4.613,2.186,4.859c0.691,0.283,1.791,0.246,2.725,0.101v-2.117H202.577"/>
</svg>
